<svg width="1200" height="630" viewBox="0 0 1200 630" xmlns="http://www.w3.org/2000/svg">
  <defs>
    <linearGradient id="paper" x1="0" y1="0" x2="0" y2="1">
      <stop offset="0" stop-color="#FBF6EA"/>
      <stop offset="1" stop-color="#F4ECDA"/>
    </linearGradient>
    <linearGradient id="sky" x1="0" y1="0" x2="0" y2="1">
      <stop offset="0" stop-color="#DCEFF7"/>
      <stop offset="1" stop-color="#EAF6FB"/>
    </linearGradient>
    <linearGradient id="brand" x1="0" y1="0" x2="1" y2="0">
      <stop offset="0" stop-color="#6F55A3"/>
      <stop offset="1" stop-color="#5B4A8F"/>
    </linearGradient>
    <filter id="soft" x="-20%" y="-20%" width="140%" height="140%">
      <feDropShadow dx="0" dy="6" stdDeviation="8" flood-color="#3A2C1F" flood-opacity="0.16"/>
    </filter>
    <style>
      .ttl{font-family:'Noto Sans CJK JP','Hiragino Sans',sans-serif;font-weight:700}
      .reg{font-family:'Noto Sans CJK JP','Hiragino Sans',sans-serif;font-weight:400}
    </style>
  </defs>

  <!-- Paper base -->
  <rect width="1200" height="630" fill="url(#paper)"/>

  <!-- Right travel scene panel -->
  <g>
    <rect x="690" y="92" width="470" height="446" rx="28" fill="url(#sky)"/>
    <path d="M770 470 q40 -70 120 -60 q70 6 120 -40 q60 -54 130 -22 q40 18 50 70 q12 70 -60 96 q-120 40 -260 24 q-130 -16 -150 -22 q-12 -30 -50 -46 z" fill="#C7E6C3" opacity="0.7"/>
    <path d="M860 250 q60 -36 130 -14 q70 22 130 -6 q-6 70 -74 96 q-90 32 -176 6 q-58 -20 -10 -82 z" fill="#BFE0CF" opacity="0.55"/>
    <g stroke="#9DBFD0" stroke-width="1" opacity="0.25">
      <line x1="690" y1="190" x2="1160" y2="190"/><line x1="690" y1="300" x2="1160" y2="300"/>
      <line x1="690" y1="410" x2="1160" y2="410"/><line x1="820" y1="92" x2="820" y2="538"/>
      <line x1="950" y1="92" x2="950" y2="538"/><line x1="1080" y1="92" x2="1080" y2="538"/>
    </g>
    <g>
      <g transform="translate(742,150)"><polygon points="0,-30 16,8 -16,8" fill="#7FB892"/><polygon points="0,-14 20,28 -20,28" fill="#6FAE85"/><rect x="-4" y="28" width="8" height="12" fill="#9A7B53"/></g>
      <g transform="translate(1118,180)"><polygon points="0,-26 14,8 -14,8" fill="#7FB892"/><polygon points="0,-12 18,26 -18,26" fill="#6FAE85"/><rect x="-4" y="26" width="8" height="10" fill="#9A7B53"/></g>
      <g transform="translate(1110,470)"><polygon points="0,-24 13,7 -13,7" fill="#7FB892"/><polygon points="0,-10 17,24 -17,24" fill="#6FAE85"/><rect x="-3" y="24" width="6" height="10" fill="#9A7B53"/></g>
    </g>
    <g>
      <g transform="translate(760,300)"><path d="M0 0 C-16 -22 -16 -40 0 -40 C16 -40 16 -22 0 0 Z" fill="#6F55A3"/><circle cx="0" cy="-26" r="7" fill="#FFF9ED"/></g>
      <g transform="translate(1108,330)"><path d="M0 0 C-13 -18 -13 -33 0 -33 C13 -33 13 -18 0 0 Z" fill="#E8954B"/><circle cx="0" cy="-21" r="6" fill="#FFF9ED"/></g>
      <g transform="translate(800,500)"><path d="M0 0 C-11 -16 -11 -28 0 -28 C11 -28 11 -16 0 0 Z" fill="#5FA4C9"/><circle cx="0" cy="-18" r="5" fill="#FFF9ED"/></g>
    </g>
    <g stroke="#A9D4E6" stroke-width="4" fill="none" opacity="0.6" stroke-linecap="round">
      <path d="M712 512 q20 -14 40 0 q20 14 40 0 q20 -14 40 0"/>
      <path d="M1010 506 q20 -14 40 0 q20 14 40 0 q20 -14 40 0"/>
    </g>
    <!-- Rank badge -->
    <circle cx="925" cy="300" r="100" fill="#6F55A3" filter="url(#soft)"/>
    <text x="925" y="273" class="reg" font-size="18" fill="#FFFFFF" text-anchor="middle">登場数</text>
    <text x="925" y="315" class="ttl" font-size="48" fill="#FFFFFF" text-anchor="middle">{{RANK}}</text>
    <text x="925" y="348" class="reg" font-size="22" fill="#FFFFFF" text-anchor="middle">位</text>
  </g>

  <!-- Header band -->
  <g>
    <rect x="40" y="26" width="600" height="50" rx="16" fill="#FFFFFF" filter="url(#soft)"/>
    <path d="M58 40 l5 11 11 1 -8 8 2 12 -10 -6 -10 6 2 -12 -8 -8 11 -1 z" fill="#6F55A3" opacity="0.8"/>
    <text x="86" y="58" class="ttl" font-size="24" fill="#5B4A8F">全国のポケふた・ポケモンマンホール</text>
  </g>

  <!-- Tag -->
  <rect x="40" y="96" width="205" height="30" rx="15" fill="#6F55A3" opacity="0.12"/>
  <text x="142" y="116" class="reg" font-size="14" fill="#5B4A8F" text-anchor="middle">ポケモン登場数ランキング</text>

  <!-- Pokemon name (large) -->
  <text x="44" y="240" class="ttl" font-size="84" fill="#3C342C">{{POKEMON}}</text>

  <!-- Divider -->
  <line x1="44" y1="268" x2="630" y2="268" stroke="#E8D6B8" stroke-width="1.5"/>

  <!-- Count stat -->
  <text x="44" y="350" class="reg" font-size="18" fill="#9A7A3F">登場するポケふた</text>
  <text x="44" y="400" class="ttl" font-size="52" fill="#6F55A3">{{COUNT}}<tspan class="reg" font-size="26">枚</tspan></text>

  <!-- City count stat -->
  <text x="44" y="450" class="reg" font-size="18" fill="#9A7A3F">設置市区町村</text>
  <text x="44" y="498" class="ttl" font-size="36" fill="#5B4A8F">{{CITY_COUNT}}<tspan class="reg" font-size="20">市区町村</tspan></text>

  <!-- Bottom brand band -->
  <rect x="0" y="556" width="1200" height="74" fill="url(#brand)"/>
  <circle cx="49" cy="587" r="9" fill="#FFFFFF" opacity="0.9"/>
  <circle cx="49" cy="587" r="5" fill="#6F55A3"/>
  <text x="66" y="587" class="ttl" font-size="22" fill="#FFFFFF">ポケふたマップ</text>
  <text x="66" y="610" class="reg" font-size="14" fill="#E8DEF5">旅の思い出に、ポケふた探しの冒険を！</text>
  <text x="600" y="600" class="ttl" font-size="18" fill="#FFFFFF" text-anchor="middle">全国470箇所以上掲載！</text>
  <text x="1160" y="600" class="ttl" font-size="20" fill="#FFFFFF" text-anchor="end">data.pokefuta.com</text>
</svg>
