<svg width="1200" height="630" viewBox="0 0 1200 630" xmlns="http://www.w3.org/2000/svg">
  <defs>
  
    <linearGradient id="bg" x1="0" y1="0" x2="1200" y2="630">
      <stop stop-color="#141E58"></stop>
      <stop offset="1" stop-color="#0D1538"></stop>
    </linearGradient>
    <radialGradient id="glow" cx="76%" cy="34%" r="60%">
      <stop stop-color="#3FB8FF" stop-opacity="0.30"></stop>
      <stop offset="42%" stop-color="#3FB8FF" stop-opacity="0.10"></stop>
      <stop offset="100%" stop-color="#0D1538" stop-opacity="0"></stop>
    </radialGradient>
    <pattern id="grid" width="56" height="56" patternUnits="userSpaceOnUse">
      <path d="M56 0H0V56" fill="none" stroke="#9FB0E0" stroke-opacity="0.06"></path>
    </pattern>
    <filter id="pinGlow" x="-120%" y="-120%" width="340%" height="340%">
      <feGaussianBlur stdDeviation="3.2" result="b"></feGaussianBlur>
      <feMerge><feMergeNode in="b"></feMergeNode><feMergeNode in="SourceGraphic"></feMergeNode></feMerge>
    </filter>
    <filter id="numGlow" x="-40%" y="-60%" width="180%" height="220%">
      <feGaussianBlur stdDeviation="14"></feGaussianBlur>
    </filter>
    <filter id="soft" x="-30%" y="-30%" width="160%" height="160%">
      <feDropShadow dx="0" dy="18" stdDeviation="26" flood-color="#000000" flood-opacity="0.45"></feDropShadow>
    </filter>
    <clipPath id="panelClip"><rect x="648" y="84" width="480" height="446" rx="30"></rect></clipPath>
  </defs>

  
  <g id="background">
    <rect width="1200" height="630" fill="url(#bg)"></rect>
    <rect width="1200" height="630" fill="url(#glow)"></rect>
    <rect width="1200" height="630" fill="url(#grid)"></rect>
  </g>

  
  <g id="map">
    <g filter="url(#soft)"><rect x="648" y="84" width="480" height="446" rx="30" fill="#0B1330" fill-opacity="0.55" stroke="#57E0BE" stroke-opacity="0.28"></rect></g>
    <g clip-path="url(#panelClip)">
      <rect x="648" y="84" width="480" height="446" fill="url(#grid)"></rect>
      <circle cx="923" cy="301.7" r="185" fill="none" stroke="#57E0BE" stroke-width="1" opacity="0.16"></circle><circle cx="923" cy="301.7" r="128" fill="none" stroke="#57E0BE" stroke-width="1" opacity="0.13"></circle><circle cx="923" cy="301.7" r="72" fill="none" stroke="#57E0BE" stroke-width="1" opacity="0.1"></circle>
      <g id="map-dots"><circle cx="993" cy="130.1" r="3.4" fill="#7CF2D6" opacity="0.95"></circle><circle cx="1003" cy="130.1" r="2.7" fill="#57E0BE" opacity="0.42"></circle><circle cx="1013" cy="130.1" r="2.7" fill="#57E0BE" opacity="0.42"></circle><circle cx="1023" cy="130.1" r="2.7" fill="#57E0BE" opacity="0.42"></circle><circle cx="1033" cy="130.1" r="2.7" fill="#57E0BE" opacity="0.42"></circle><circle cx="1043" cy="130.1" r="2.7" fill="#57E0BE" opacity="0.42"></circle><circle cx="983" cy="142.4" r="3.4" fill="#7CF2D6" opacity="0.95"></circle><circle cx="993" cy="142.4" r="2.7" fill="#57E0BE" opacity="0.42"></circle><circle cx="1003" cy="142.4" r="2.7" fill="#57E0BE" opacity="0.42"></circle><circle cx="1013" cy="142.4" r="2.7" fill="#57E0BE" opacity="0.42"></circle><circle cx="1023" cy="142.4" r="2.7" fill="#57E0BE" opacity="0.42"></circle><circle cx="1033" cy="142.4" r="2.7" fill="#57E0BE" opacity="0.42"></circle><circle cx="1043" cy="142.4" r="3.4" fill="#7CF2D6" opacity="0.95"></circle><circle cx="1053" cy="142.4" r="2.7" fill="#57E0BE" opacity="0.42"></circle><circle cx="973" cy="154.6" r="2.7" fill="#57E0BE" opacity="0.42"></circle><circle cx="983" cy="154.6" r="2.7" fill="#57E0BE" opacity="0.42"></circle><circle cx="993" cy="154.6" r="2.7" fill="#57E0BE" opacity="0.42"></circle><circle cx="1003" cy="154.6" r="2.7" fill="#57E0BE" opacity="0.42"></circle><circle cx="1013" cy="154.6" r="3.4" fill="#7CF2D6" opacity="0.95"></circle><circle cx="1023" cy="154.6" r="2.7" fill="#57E0BE" opacity="0.42"></circle><circle cx="1033" cy="154.6" r="2.7" fill="#57E0BE" opacity="0.42"></circle><circle cx="1043" cy="154.6" r="2.7" fill="#57E0BE" opacity="0.42"></circle><circle cx="983" cy="166.9" r="2.7" fill="#57E0BE" opacity="0.42"></circle><circle cx="993" cy="166.9" r="2.7" fill="#57E0BE" opacity="0.42"></circle><circle cx="1003" cy="166.9" r="3.4" fill="#7CF2D6" opacity="0.95"></circle><circle cx="1013" cy="166.9" r="2.7" fill="#57E0BE" opacity="0.42"></circle><circle cx="1023" cy="166.9" r="2.7" fill="#57E0BE" opacity="0.42"></circle><circle cx="1033" cy="166.9" r="2.7" fill="#57E0BE" opacity="0.42"></circle><circle cx="1003" cy="179.2" r="2.7" fill="#57E0BE" opacity="0.42"></circle><circle cx="1013" cy="179.2" r="2.7" fill="#57E0BE" opacity="0.42"></circle><circle cx="1023" cy="179.2" r="3.4" fill="#7CF2D6" opacity="0.95"></circle><circle cx="973" cy="203.7" r="2.7" fill="#57E0BE" opacity="0.42"></circle><circle cx="983" cy="203.7" r="2.7" fill="#57E0BE" opacity="0.42"></circle><circle cx="993" cy="203.7" r="2.7" fill="#57E0BE" opacity="0.42"></circle><circle cx="1003" cy="203.7" r="2.7" fill="#57E0BE" opacity="0.42"></circle><circle cx="963" cy="215.9" r="2.7" fill="#57E0BE" opacity="0.42"></circle><circle cx="973" cy="215.9" r="3.4" fill="#7CF2D6" opacity="0.95"></circle><circle cx="983" cy="215.9" r="2.7" fill="#57E0BE" opacity="0.42"></circle><circle cx="993" cy="215.9" r="2.7" fill="#57E0BE" opacity="0.42"></circle><circle cx="1003" cy="215.9" r="2.7" fill="#57E0BE" opacity="0.42"></circle><circle cx="963" cy="228.2" r="2.7" fill="#57E0BE" opacity="0.42"></circle><circle cx="973" cy="228.2" r="2.7" fill="#57E0BE" opacity="0.42"></circle><circle cx="983" cy="228.2" r="3.4" fill="#7CF2D6" opacity="0.95"></circle><circle cx="993" cy="228.2" r="2.7" fill="#57E0BE" opacity="0.42"></circle><circle cx="953" cy="240.5" r="2.7" fill="#57E0BE" opacity="0.42"></circle><circle cx="963" cy="240.5" r="2.7" fill="#57E0BE" opacity="0.42"></circle><circle cx="973" cy="240.5" r="2.7" fill="#57E0BE" opacity="0.42"></circle><circle cx="983" cy="240.5" r="2.7" fill="#57E0BE" opacity="0.42"></circle><circle cx="993" cy="240.5" r="3.4" fill="#7CF2D6" opacity="0.95"></circle><circle cx="953" cy="252.7" r="2.7" fill="#57E0BE" opacity="0.42"></circle><circle cx="963" cy="252.7" r="2.7" fill="#57E0BE" opacity="0.42"></circle><circle cx="973" cy="252.7" r="2.7" fill="#57E0BE" opacity="0.42"></circle><circle cx="983" cy="252.7" r="2.7" fill="#57E0BE" opacity="0.42"></circle><circle cx="943" cy="265" r="2.7" fill="#57E0BE" opacity="0.42"></circle><circle cx="953" cy="265" r="3.4" fill="#7CF2D6" opacity="0.95"></circle><circle cx="963" cy="265" r="2.7" fill="#57E0BE" opacity="0.42"></circle><circle cx="973" cy="265" r="2.7" fill="#57E0BE" opacity="0.42"></circle><circle cx="983" cy="265" r="2.7" fill="#57E0BE" opacity="0.42"></circle><circle cx="933" cy="277.2" r="2.7" fill="#57E0BE" opacity="0.42"></circle><circle cx="943" cy="277.2" r="2.7" fill="#57E0BE" opacity="0.42"></circle><circle cx="953" cy="277.2" r="3.4" fill="#7CF2D6" opacity="0.95"></circle><circle cx="963" cy="277.2" r="2.7" fill="#57E0BE" opacity="0.42"></circle><circle cx="973" cy="277.2" r="2.7" fill="#57E0BE" opacity="0.42"></circle><circle cx="983" cy="277.2" r="2.7" fill="#57E0BE" opacity="0.42"></circle><circle cx="993" cy="277.2" r="2.7" fill="#57E0BE" opacity="0.42"></circle><circle cx="923" cy="289.5" r="2.7" fill="#57E0BE" opacity="0.42"></circle><circle cx="933" cy="289.5" r="3.4" fill="#7CF2D6" opacity="0.95"></circle><circle cx="943" cy="289.5" r="2.7" fill="#57E0BE" opacity="0.42"></circle><circle cx="953" cy="289.5" r="2.7" fill="#57E0BE" opacity="0.42"></circle><circle cx="963" cy="289.5" r="2.7" fill="#57E0BE" opacity="0.42"></circle><circle cx="973" cy="289.5" r="2.7" fill="#57E0BE" opacity="0.42"></circle><circle cx="983" cy="289.5" r="2.7" fill="#57E0BE" opacity="0.42"></circle><circle cx="913" cy="301.7" r="3.4" fill="#7CF2D6" opacity="0.95"></circle><circle cx="923" cy="301.7" r="2.7" fill="#57E0BE" opacity="0.42"></circle><circle cx="933" cy="301.7" r="2.7" fill="#57E0BE" opacity="0.42"></circle><circle cx="943" cy="301.7" r="2.7" fill="#57E0BE" opacity="0.42"></circle><circle cx="953" cy="301.7" r="2.7" fill="#57E0BE" opacity="0.42"></circle><circle cx="963" cy="301.7" r="2.7" fill="#57E0BE" opacity="0.42"></circle><circle cx="893" cy="314" r="3.4" fill="#7CF2D6" opacity="0.95"></circle><circle cx="903" cy="314" r="2.7" fill="#57E0BE" opacity="0.42"></circle><circle cx="913" cy="314" r="2.7" fill="#57E0BE" opacity="0.42"></circle><circle cx="923" cy="314" r="2.7" fill="#57E0BE" opacity="0.42"></circle><circle cx="933" cy="314" r="2.7" fill="#57E0BE" opacity="0.42"></circle><circle cx="943" cy="314" r="2.7" fill="#57E0BE" opacity="0.42"></circle><circle cx="953" cy="314" r="3.4" fill="#7CF2D6" opacity="0.95"></circle><circle cx="963" cy="314" r="2.7" fill="#57E0BE" opacity="0.42"></circle><circle cx="873" cy="326.3" r="2.7" fill="#57E0BE" opacity="0.42"></circle><circle cx="883" cy="326.3" r="2.7" fill="#57E0BE" opacity="0.42"></circle><circle cx="893" cy="326.3" r="2.7" fill="#57E0BE" opacity="0.42"></circle><circle cx="903" cy="326.3" r="2.7" fill="#57E0BE" opacity="0.42"></circle><circle cx="913" cy="326.3" r="3.4" fill="#7CF2D6" opacity="0.95"></circle><circle cx="923" cy="326.3" r="2.7" fill="#57E0BE" opacity="0.42"></circle><circle cx="933" cy="326.3" r="2.7" fill="#57E0BE" opacity="0.42"></circle><circle cx="943" cy="326.3" r="2.7" fill="#57E0BE" opacity="0.42"></circle><circle cx="853" cy="338.5" r="2.7" fill="#57E0BE" opacity="0.42"></circle><circle cx="863" cy="338.5" r="2.7" fill="#57E0BE" opacity="0.42"></circle><circle cx="873" cy="338.5" r="3.4" fill="#7CF2D6" opacity="0.95"></circle><circle cx="883" cy="338.5" r="2.7" fill="#57E0BE" opacity="0.42"></circle><circle cx="893" cy="338.5" r="2.7" fill="#57E0BE" opacity="0.42"></circle><circle cx="903" cy="338.5" r="2.7" fill="#57E0BE" opacity="0.42"></circle><circle cx="913" cy="338.5" r="2.7" fill="#57E0BE" opacity="0.42"></circle><circle cx="923" cy="338.5" r="2.7" fill="#57E0BE" opacity="0.42"></circle><circle cx="843" cy="350.8" r="3.4" fill="#7CF2D6" opacity="0.95"></circle><circle cx="853" cy="350.8" r="2.7" fill="#57E0BE" opacity="0.42"></circle><circle cx="863" cy="350.8" r="2.7" fill="#57E0BE" opacity="0.42"></circle><circle cx="873" cy="350.8" r="2.7" fill="#57E0BE" opacity="0.42"></circle><circle cx="883" cy="350.8" r="2.7" fill="#57E0BE" opacity="0.42"></circle><circle cx="893" cy="350.8" r="2.7" fill="#57E0BE" opacity="0.42"></circle><circle cx="903" cy="350.8" r="3.4" fill="#7CF2D6" opacity="0.95"></circle><circle cx="813" cy="363" r="2.7" fill="#57E0BE" opacity="0.42"></circle><circle cx="823" cy="363" r="2.7" fill="#57E0BE" opacity="0.42"></circle><circle cx="833" cy="363" r="2.7" fill="#57E0BE" opacity="0.42"></circle><circle cx="843" cy="363" r="2.7" fill="#57E0BE" opacity="0.42"></circle><circle cx="853" cy="363" r="2.7" fill="#57E0BE" opacity="0.42"></circle><circle cx="863" cy="363" r="3.4" fill="#7CF2D6" opacity="0.95"></circle><circle cx="873" cy="363" r="2.7" fill="#57E0BE" opacity="0.42"></circle><circle cx="883" cy="363" r="2.7" fill="#57E0BE" opacity="0.42"></circle><circle cx="793" cy="375.3" r="2.7" fill="#57E0BE" opacity="0.42"></circle><circle cx="803" cy="375.3" r="2.7" fill="#57E0BE" opacity="0.42"></circle><circle cx="813" cy="375.3" r="2.7" fill="#57E0BE" opacity="0.42"></circle><circle cx="823" cy="375.3" r="3.4" fill="#7CF2D6" opacity="0.95"></circle><circle cx="833" cy="375.3" r="2.7" fill="#57E0BE" opacity="0.42"></circle><circle cx="843" cy="375.3" r="2.7" fill="#57E0BE" opacity="0.42"></circle><circle cx="853" cy="375.3" r="2.7" fill="#57E0BE" opacity="0.42"></circle><circle cx="783" cy="387.5" r="2.7" fill="#57E0BE" opacity="0.42"></circle><circle cx="793" cy="387.5" r="2.7" fill="#57E0BE" opacity="0.42"></circle><circle cx="803" cy="387.5" r="3.4" fill="#7CF2D6" opacity="0.95"></circle><circle cx="813" cy="387.5" r="2.7" fill="#57E0BE" opacity="0.42"></circle><circle cx="823" cy="387.5" r="2.7" fill="#57E0BE" opacity="0.42"></circle><circle cx="843" cy="387.5" r="2.7" fill="#57E0BE" opacity="0.42"></circle><circle cx="853" cy="387.5" r="2.7" fill="#57E0BE" opacity="0.42"></circle><circle cx="863" cy="387.5" r="2.7" fill="#57E0BE" opacity="0.42"></circle><circle cx="873" cy="387.5" r="3.4" fill="#7CF2D6" opacity="0.95"></circle><circle cx="833" cy="399.8" r="2.7" fill="#57E0BE" opacity="0.42"></circle><circle cx="843" cy="399.8" r="2.7" fill="#57E0BE" opacity="0.42"></circle><circle cx="853" cy="399.8" r="2.7" fill="#57E0BE" opacity="0.42"></circle><circle cx="863" cy="399.8" r="2.7" fill="#57E0BE" opacity="0.42"></circle><circle cx="873" cy="399.8" r="2.7" fill="#57E0BE" opacity="0.42"></circle><circle cx="843" cy="412.1" r="3.4" fill="#7CF2D6" opacity="0.95"></circle><circle cx="853" cy="412.1" r="2.7" fill="#57E0BE" opacity="0.42"></circle><circle cx="863" cy="412.1" r="2.7" fill="#57E0BE" opacity="0.42"></circle><circle cx="753" cy="375.3" r="2.7" fill="#57E0BE" opacity="0.42"></circle><circle cx="763" cy="375.3" r="2.7" fill="#57E0BE" opacity="0.42"></circle><circle cx="773" cy="375.3" r="2.7" fill="#57E0BE" opacity="0.42"></circle><circle cx="783" cy="375.3" r="3.4" fill="#7CF2D6" opacity="0.95"></circle><circle cx="793" cy="375.3" r="2.7" fill="#57E0BE" opacity="0.42"></circle><circle cx="743" cy="387.5" r="2.7" fill="#57E0BE" opacity="0.42"></circle><circle cx="753" cy="387.5" r="2.7" fill="#57E0BE" opacity="0.42"></circle><circle cx="763" cy="387.5" r="2.7" fill="#57E0BE" opacity="0.42"></circle><circle cx="773" cy="387.5" r="2.7" fill="#57E0BE" opacity="0.42"></circle><circle cx="783" cy="387.5" r="3.4" fill="#7CF2D6" opacity="0.95"></circle><circle cx="793" cy="387.5" r="2.7" fill="#57E0BE" opacity="0.42"></circle><circle cx="733" cy="399.8" r="2.7" fill="#57E0BE" opacity="0.42"></circle><circle cx="743" cy="399.8" r="2.7" fill="#57E0BE" opacity="0.42"></circle><circle cx="753" cy="399.8" r="2.7" fill="#57E0BE" opacity="0.42"></circle><circle cx="763" cy="399.8" r="2.7" fill="#57E0BE" opacity="0.42"></circle><circle cx="773" cy="399.8" r="3.4" fill="#7CF2D6" opacity="0.95"></circle><circle cx="783" cy="399.8" r="2.7" fill="#57E0BE" opacity="0.42"></circle><circle cx="733" cy="412.1" r="2.7" fill="#57E0BE" opacity="0.42"></circle><circle cx="743" cy="412.1" r="2.7" fill="#57E0BE" opacity="0.42"></circle><circle cx="753" cy="412.1" r="2.7" fill="#57E0BE" opacity="0.42"></circle><circle cx="763" cy="412.1" r="2.7" fill="#57E0BE" opacity="0.42"></circle><circle cx="773" cy="412.1" r="3.4" fill="#7CF2D6" opacity="0.95"></circle><circle cx="743" cy="424.3" r="2.7" fill="#57E0BE" opacity="0.42"></circle><circle cx="753" cy="424.3" r="2.7" fill="#57E0BE" opacity="0.42"></circle><circle cx="763" cy="424.3" r="2.7" fill="#57E0BE" opacity="0.42"></circle><circle cx="773" cy="424.3" r="2.7" fill="#57E0BE" opacity="0.42"></circle><circle cx="743" cy="436.6" r="2.7" fill="#57E0BE" opacity="0.42"></circle><circle cx="753" cy="436.6" r="3.4" fill="#7CF2D6" opacity="0.95"></circle><circle cx="763" cy="436.6" r="2.7" fill="#57E0BE" opacity="0.42"></circle><circle cx="753" cy="448.8" r="2.7" fill="#57E0BE" opacity="0.42"></circle><circle cx="763" cy="448.8" r="2.7" fill="#57E0BE" opacity="0.42"></circle><circle cx="713" cy="473.4" r="2.7" fill="#57E0BE" opacity="0.42"></circle><circle cx="723" cy="473.4" r="2.7" fill="#57E0BE" opacity="0.42"></circle><circle cx="703" cy="485.6" r="3.4" fill="#7CF2D6" opacity="0.95"></circle><circle cx="713" cy="485.6" r="2.7" fill="#57E0BE" opacity="0.42"></circle><circle cx="693" cy="497.9" r="2.7" fill="#57E0BE" opacity="0.42"></circle><circle cx="703" cy="497.9" r="2.7" fill="#57E0BE" opacity="0.42"></circle></g>
      <g id="map-route"><polyline points="1013,154.6 973,228.2 943,289.5 873,338.5 763,399.8" fill="none" stroke="#57E0BE" stroke-width="2.2" stroke-dasharray="2 7" stroke-linecap="round" opacity="0.6"></polyline><circle cx="1013" cy="154.6" r="8" fill="#57E0BE" opacity="0.25"></circle><circle cx="1013" cy="154.6" r="4.2" fill="#7CF2D6" filter="url(#pinGlow)"></circle><circle cx="973" cy="228.2" r="8" fill="#57E0BE" opacity="0.25"></circle><circle cx="973" cy="228.2" r="4.2" fill="#7CF2D6" filter="url(#pinGlow)"></circle><circle cx="873" cy="338.5" r="8" fill="#57E0BE" opacity="0.25"></circle><circle cx="873" cy="338.5" r="4.2" fill="#7CF2D6" filter="url(#pinGlow)"></circle><circle cx="763" cy="399.8" r="8" fill="#57E0BE" opacity="0.25"></circle><circle cx="763" cy="399.8" r="4.2" fill="#7CF2D6" filter="url(#pinGlow)"></circle><g transform="translate(943 289.5)"><circle cx="0" cy="0" r="22" fill="#57E0BE" opacity="0.16"></circle><circle cx="0" cy="0" r="14" fill="#57E0BE" opacity="0.22"></circle><path d="M0 4C-13 -16 -14 -33 0 -33C14 -33 13 -16 0 4Z" fill="#7CF2D6" filter="url(#pinGlow)"></path><circle cx="0" cy="-21" r="6" fill="#0E1438"></circle></g></g>
    </g>
    
    <g id="map-caption-pill">
      <rect x="668" y="476" width="332" height="40" rx="20" fill="#0B1330" fill-opacity="0.7" stroke="#57E0BE" stroke-opacity="0.4"></rect>
      <circle cx="690" cy="496" r="4.5" fill="#7CF2D6"></circle>
      <text id="map-caption" class="jp" x="704" y="503" font-size="18" font-weight="700" fill="#C9D4F2">全国470枚の分布をチェック</text>
    </g>
    
  </g>

  
  <g id="content">
    
    <g id="category">
      <rect x="76" y="84" width="122" height="44" rx="22" fill="#57E0BE" fill-opacity="0.14" stroke="#57E0BE" stroke-opacity="0.7"></rect>
      <circle cx="100" cy="106" r="5" fill="#7CF2D6" filter="url(#pinGlow)"></circle>
      <text id="cat-label" class="mono" x="114" y="113" font-size="17" font-weight="900" letter-spacing="0.12em" fill="#7CF2D6">TRIVIA</text>
    </g>

    
    <text id="title-1" class="jp" x="76" y="208" font-size="56" font-weight="900" fill="#FFFFFF" letter-spacing="-0.01em">実は1枚しかない</text>
    <text id="title-2" class="jp" x="76" y="272" font-size="56" font-weight="900" fill="#FFFFFF" letter-spacing="-0.01em">レアな県がある</text>

    <rect x="76" y="296" width="360" height="2" rx="1" fill="#57E0BE" opacity="0.7"></rect>

    
    <text id="num-kicker" class="jp" x="76" y="338" font-size="24" font-weight="800" fill="#F2C24C">ポケふたが1枚だけの県</text>
    <text id="main-number-glow" class="en" x="74" y="446" font-size="118" font-weight="900" fill="#7CF2D6" letter-spacing="-0.05em" filter="url(#numGlow)" opacity="0.55">6</text>
    <text id="main-number" class="en" x="74" y="446" font-size="118" font-weight="900" fill="#7CF2D6" letter-spacing="-0.05em">6</text>
    <text id="main-unit" class="jp" x="158" y="436" font-size="42" font-weight="900" fill="#FFFFFF">県</text>

    
    <text id="description" class="jp" x="76" y="490" font-size="22" font-weight="700" fill="#9FAAD2">旅行のついでに、その1枚を見つけよう。</text>

    
    <g id="chips"><g><rect id="chip-bg-1" x="76" y="504" width="84" height="38" rx="19" fill="#FFFFFF" fill-opacity="0.06" stroke="#57E0BE" stroke-opacity="0.5"></rect><circle cx="90" cy="523" r="3.2" fill="#57E0BE"></circle><text id="chip-1" class="jp" x="101" y="530" font-size="21" font-weight="700" fill="#EAF0FF">山梨</text></g><g><rect id="chip-bg-2" x="171" y="504" width="84" height="38" rx="19" fill="#FFFFFF" fill-opacity="0.06" stroke="#57E0BE" stroke-opacity="0.5"></rect><circle cx="185" cy="523" r="3.2" fill="#57E0BE"></circle><text id="chip-2" class="jp" x="196" y="530" font-size="21" font-weight="700" fill="#EAF0FF">秋田</text></g><g><rect id="chip-bg-3" x="266" y="504" width="84" height="38" rx="19" fill="#FFFFFF" fill-opacity="0.06" stroke="#57E0BE" stroke-opacity="0.5"></rect><circle cx="280" cy="523" r="3.2" fill="#57E0BE"></circle><text id="chip-3" class="jp" x="291" y="530" font-size="21" font-weight="700" fill="#EAF0FF">福井</text></g><g><rect id="chip-bg-4" x="361" y="504" width="84" height="38" rx="19" fill="#FFFFFF" fill-opacity="0.06" stroke="#57E0BE" stroke-opacity="0.5"></rect><circle cx="375" cy="523" r="3.2" fill="#57E0BE"></circle><text id="chip-4" class="jp" x="386" y="530" font-size="21" font-weight="700" fill="#EAF0FF">滋賀</text></g><g><rect id="chip-bg-5" x="456" y="504" width="84" height="38" rx="19" fill="#FFFFFF" fill-opacity="0.06" stroke="#57E0BE" stroke-opacity="0.5"></rect><circle cx="470" cy="523" r="3.2" fill="#57E0BE"></circle><text id="chip-5" class="jp" x="481" y="530" font-size="21" font-weight="700" fill="#EAF0FF">佐賀</text></g><g><rect id="chip-bg-6" x="551" y="504" width="84" height="38" rx="19" fill="#FFFFFF" fill-opacity="0.06" stroke="#57E0BE" stroke-opacity="0.5"></rect><circle cx="565" cy="523" r="3.2" fill="#57E0BE"></circle><text id="chip-6" class="jp" x="576" y="530" font-size="21" font-weight="700" fill="#EAF0FF">山形</text></g></g>
  </g>

  
  <g id="footer">
    <rect x="0" y="546" width="1200" height="84" fill="#0A1026"></rect>
    <rect x="0" y="546" width="1200" height="2.5" fill="#57E0BE" opacity="0.85"></rect>
    
    <g id="brand-mark" transform="translate(58 588)">
      <circle r="22" fill="none" stroke="#57E0BE" stroke-width="2.4"></circle>
      <circle r="15" fill="none" stroke="#7CF2D6" stroke-width="1.6" stroke-opacity="0.8"></circle>
      <circle r="4.5" fill="#7CF2D6"></circle>
      <g stroke="#57E0BE" stroke-width="2" stroke-linecap="round">
        <line x1="0" y1="-22" x2="0" y2="-16"></line><line x1="0" y1="16" x2="0" y2="22"></line>
        <line x1="-22" y1="0" x2="-16" y2="0"></line><line x1="16" y1="0" x2="22" y2="0"></line>
        <line x1="15.5" y1="15.5" x2="11" y2="11"></line><line x1="-15.5" y1="15.5" x2="-11" y2="11"></line>
        <line x1="15.5" y1="-15.5" x2="11" y2="-11"></line><line x1="-15.5" y1="-15.5" x2="-11" y2="-11"></line>
      </g>
    </g>
    <text id="footer-name" class="jp" x="94" y="582" font-size="26" font-weight="900" fill="#FFFFFF">ポケふたマップ</text>
    <text id="footer-sub" class="jp" x="94" y="608" font-size="15" font-weight="700" fill="#9FAAD2">日本全国のご当地マンホール雑学</text>
    <text id="footer-url" class="mono" x="1142" y="582" text-anchor="end" font-size="20" font-weight="900" fill="#7CF2D6">data.pokefuta.com</text>
    <text id="footer-note" class="jp" x="1142" y="608" text-anchor="end" font-size="15" font-weight="700" fill="#9FAAD2">全国470枚以上を地図で掲載</text>
    <g transform="translate(1142 552)">
      <circle cx="-36" cy="0" r="0"></circle>
    </g>
  </g>
</svg>