<svg width="1200" height="630" viewBox="0 0 1200 630" xmlns="http://www.w3.org/2000/svg">
<defs>
  <linearGradient id="bg" x1="0" y1="0" x2="1200" y2="630" gradientUnits="userSpaceOnUse">
    <stop offset="0" stop-color="#0C1B33"/><stop offset="0.55" stop-color="#14103C"/><stop offset="1" stop-color="#0F1E42"/>
  </linearGradient>
  <radialGradient id="glow_r" cx="78%" cy="44%" r="42%">
    <stop offset="0" stop-color="#2E1780" stop-opacity="0.5"/><stop offset="1" stop-color="#0C1B33" stop-opacity="0"/>
  </radialGradient>
  <linearGradient id="gold" x1="0" y1="0" x2="0" y2="1">
    <stop offset="0" stop-color="#FFE566"/><stop offset="1" stop-color="#F5A623"/>
  </linearGradient>
  <radialGradient id="badge_glow" cx="50%" cy="50%" r="50%">
    <stop offset="0" stop-color="#F5C842" stop-opacity="0.22"/><stop offset="1" stop-color="#F5C842" stop-opacity="0"/>
  </radialGradient>
  <filter id="nglow" x="-25%" y="-25%" width="150%" height="150%">
    <feGaussianBlur stdDeviation="5" result="b"/>
    <feMerge><feMergeNode in="b"/><feMergeNode in="SourceGraphic"/></feMerge>
  </filter>
  <style>.jp{font-family:'Hiragino Sans','Yu Gothic UI','Noto Sans CJK JP',sans-serif;}.en{font-family:'Helvetica Neue',Arial,sans-serif;}</style>
  
</defs>
<rect width="1200" height="630" fill="url(#bg)"/>
<rect width="1200" height="630" fill="url(#glow_r)"/>
<g fill="white">
  <circle cx="72" cy="25" r="1.1" opacity="0.4"/><circle cx="138" cy="14" r="0.9" opacity="0.3"/>
  <circle cx="254" cy="20" r="1" opacity="0.35"/><circle cx="378" cy="12" r="1.2" opacity="0.4"/>
  <circle cx="420" cy="52" r="1.7" opacity="0.45"/><circle cx="514" cy="6" r="1.3" opacity="0.35"/>
  <circle cx="160" cy="58" r="1.3" opacity="0.3"/><circle cx="870" cy="18" r="1.4" opacity="0.25"/>
</g>
<line x1="578" y1="30" x2="578" y2="598" stroke="rgba(255,255,255,0.06)" stroke-width="1"/>
<!-- LEFT: text -->
<rect x="52" y="44" width="228" height="30" rx="15"
      fill="#F5C842" fill-opacity="0.1" stroke="#F5C842" stroke-opacity="0.45" stroke-width="1.5"/>
<text x="166" y="64" class="jp" font-size="13" font-weight="700" fill="#F5C842" text-anchor="middle">都道府県別ランキング</text>
<text x="48" y="175" class="jp" font-size="94" font-weight="900" fill="#FFFFFF" opacity="0.95">福島県</text>
<text x="48" y="285" class="en" font-size="100" font-weight="900" fill="url(#gold)" filter="url(#nglow)">43</text>
<text x="168" y="272" class="jp" font-size="36" font-weight="700" fill="#F5C842">枚</text>
<circle cx="390" cy="250" r="52" fill="url(#badge_glow)"/>
<circle cx="390" cy="250" r="43" fill="#F5C842" fill-opacity="0.07" stroke="#F5C842" stroke-width="2" stroke-opacity="0.5"/>
<text x="390" y="234" class="jp" font-size="13" font-weight="700" fill="#F5C842" text-anchor="middle" opacity="0.8">全国</text>
<text x="390" y="264" class="en" font-size="33" font-weight="900" fill="#FFE566" text-anchor="middle" filter="url(#nglow)">2</text>
<text x="390" y="283" class="jp" font-size="15" font-weight="700" fill="#F5C842" text-anchor="middle" opacity="0.85">位</text>
<text x="52" y="316" class="jp" font-size="16" fill="rgba(255,255,255,0.42)">全国470枚中　9.1% を占める</text>
<rect x="52" y="326" width="430" height="1" fill="#F5C842" opacity="0.22"/>
<text x="52" y="350" class="jp" font-size="13" font-weight="700" fill="rgba(255,255,255,0.38)">登場するポケモン</text>
<text x="52" y="374" class="jp" font-size="14" font-weight="700" fill="rgba(255,255,255,0.75)">ラッキー</text>
<text x="482" y="374" class="jp" font-size="13" fill="#F5C842" text-anchor="end">43箇所</text>
<rect x="52" y="378" width="430" height="9" rx="4.5" fill="rgba(255,255,255,0.1)"/>
<rect x="52" y="378" width="430" height="9" rx="4.5" fill="url(#gold)" opacity="0.85"/>
<text x="52" y="408" class="jp" font-size="14" font-weight="700" fill="rgba(255,255,255,0.75)">ピンプク</text>
<text x="482" y="408" class="jp" font-size="13" fill="#F5C842" text-anchor="end">3箇所</text>
<rect x="52" y="412" width="430" height="9" rx="4.5" fill="rgba(255,255,255,0.1)"/>
<rect x="52" y="412" width="30" height="9" rx="4.5" fill="rgba(140,200,255,0.7)" opacity="0.85"/>
<text x="52" y="450" class="jp" font-size="12" fill="rgba(255,255,255,0.32)">その他の登場ポケモン</text>
<rect x="52" y="454" width="74" height="22" rx="11" fill="rgba(100,160,230,0.12)" stroke="rgba(140,190,255,0.3)" stroke-width="1"/>
<text x="89" y="470" class="jp" font-size="12" fill="rgba(255,255,255,0.6)" text-anchor="middle">オドシシ</text>
<rect x="132" y="454" width="74" height="22" rx="11" fill="rgba(100,160,230,0.12)" stroke="rgba(140,190,255,0.3)" stroke-width="1"/>
<text x="169" y="470" class="jp" font-size="12" fill="rgba(255,255,255,0.6)" text-anchor="middle">ポニータ</text>
<rect x="212" y="454" width="88" height="22" rx="11" fill="rgba(100,160,230,0.12)" stroke="rgba(140,190,255,0.3)" stroke-width="1"/>
<text x="256" y="470" class="jp" font-size="12" fill="rgba(255,255,255,0.6)" text-anchor="middle">ギャロップ</text>
<rect x="306" y="454" width="88" height="22" rx="11" fill="rgba(100,160,230,0.12)" stroke="rgba(140,190,255,0.3)" stroke-width="1"/>
<text x="350" y="470" class="jp" font-size="12" fill="rgba(255,255,255,0.6)" text-anchor="middle">ラビフット</text>
<rect x="400" y="454" width="88" height="22" rx="11" fill="rgba(100,160,230,0.12)" stroke="rgba(140,190,255,0.3)" stroke-width="1"/>
<text x="444" y="470" class="jp" font-size="12" fill="rgba(255,255,255,0.6)" text-anchor="middle">キレイハナ</text>
<rect x="52" y="482" width="88" height="22" rx="11" fill="rgba(100,160,230,0.12)" stroke="rgba(140,190,255,0.3)" stroke-width="1"/>
<text x="96" y="498" class="jp" font-size="12" fill="rgba(255,255,255,0.6)" text-anchor="middle">カラサリス</text>
<rect x="146" y="482" width="74" height="22" rx="11" fill="rgba(100,160,230,0.12)" stroke="rgba(140,190,255,0.3)" stroke-width="1"/>
<text x="183" y="498" class="jp" font-size="12" fill="rgba(255,255,255,0.6)" text-anchor="middle">マユルド</text>
<rect x="226" y="482" width="88" height="22" rx="11" fill="rgba(100,160,230,0.12)" stroke="rgba(140,190,255,0.3)" stroke-width="1"/>
<text x="270" y="498" class="jp" font-size="12" fill="rgba(255,255,255,0.6)" text-anchor="middle">ヘラクロス</text>
<rect x="320" y="482" width="88" height="22" rx="11" fill="rgba(100,160,230,0.12)" stroke="rgba(140,190,255,0.3)" stroke-width="1"/>
<text x="364" y="498" class="jp" font-size="12" fill="rgba(255,255,255,0.6)" text-anchor="middle">サシカマス</text>
<rect x="414" y="482" width="60" height="22" rx="11" fill="rgba(100,160,230,0.12)" stroke="rgba(140,190,255,0.3)" stroke-width="1"/>
<text x="444" y="498" class="jp" font-size="12" fill="rgba(255,255,255,0.6)" text-anchor="middle">ヨワシ</text>

<!-- RIGHT: map -->
<path d="M 933.7,148.5 L 953.4,155.8 L 969.1,149.4 L 987.7,156.7 L 986.2,164.3 L 991.3,169.8 L 1013.2,163.4 L 1047.3,173.0 L 1046.2,193.3 L 1057.7,202.5 L 1077.5,203.9 L 1068.0,198.4 L 1070.8,195.6 L 1092.2,198.6 L 1093.3,172.2 L 1105.1,168.7 L 1114.0,170.8 L 1121.9,188.7 L 1129.3,190.8 L 1140.7,234.2 L 1145.0,285.7 L 1140.2,329.3 L 1143.2,331.0 L 1136.6,348.8 L 1137.6,355.2 L 1140.9,353.1 L 1134.8,360.1 L 1123.9,427.0 L 1111.1,437.1 L 1104.3,434.6 L 1082.6,444.2 L 1073.9,458.7 L 1026.8,445.6 L 1015.7,434.7 L 1012.6,443.0 L 1020.0,454.0 L 1005.5,457.9 L 984.6,476.5 L 977.6,468.3 L 960.6,463.7 L 956.7,450.7 L 946.4,448.6 L 937.6,437.8 L 923.5,434.5 L 925.2,411.7 L 912.8,412.2 L 909.9,401.1 L 894.3,389.4 L 862.5,379.2 L 829.2,376.3 L 809.4,382.2 L 805.3,386.2 L 806.9,395.2 L 794.1,393.5 L 787.8,399.2 L 765.8,402.9 L 763.5,407.7 L 740.8,414.6 L 727.6,424.1 L 706.7,427.3 L 698.0,439.7 L 688.3,443.5 L 643.4,436.4 L 650.0,421.8 L 647.0,414.8 L 651.4,405.8 L 644.7,386.7 L 649.5,373.3 L 640.6,361.0 L 633.8,365.1 L 625.0,353.0 L 638.0,339.7 L 639.7,326.4 L 644.0,323.7 L 643.5,311.6 L 634.0,305.1 L 639.2,296.3 L 679.7,288.8 L 689.4,291.5 L 698.0,276.5 L 741.4,276.9 L 731.5,239.3 L 753.0,228.3 L 752.2,222.4 L 761.5,210.0 L 784.6,192.5 L 776.3,182.3 L 767.9,184.4 L 775.2,181.9 L 784.8,191.7 L 796.3,188.6 L 803.7,196.5 L 817.0,190.0 L 824.6,194.7 L 838.9,189.6 L 854.2,208.8 L 869.9,203.2 L 888.7,215.5 L 902.4,209.2 L 921.9,212.2 L 938.9,194.9 L 928.9,187.6 L 933.7,148.5 Z" fill="rgba(90,150,220,0.09)" stroke="rgba(140,200,255,0.5)" stroke-width="1.8" stroke-linejoin="round"/>
<circle cx="1112.3" cy="175.6" r="3.5" fill="#F5C842" fill-opacity="0.65" stroke="#F5C842" stroke-width="0.5" stroke-opacity="0.4"/>
<circle cx="1122.8" cy="189.8" r="3.5" fill="#F5C842" fill-opacity="0.65" stroke="#F5C842" stroke-width="0.5" stroke-opacity="0.4"/>
<circle cx="1128.3" cy="242.9" r="3.5" fill="#F5C842" fill-opacity="0.65" stroke="#F5C842" stroke-width="0.5" stroke-opacity="0.4"/>
<circle cx="1133.3" cy="281.5" r="3.5" fill="#F5C842" fill-opacity="0.65" stroke="#F5C842" stroke-width="0.5" stroke-opacity="0.4"/>
<circle cx="1132.3" cy="349.6" r="3.5" fill="#F5C842" fill-opacity="0.65" stroke="#F5C842" stroke-width="0.5" stroke-opacity="0.4"/>
<circle cx="1131.2" cy="389.2" r="3.5" fill="#F5C842" fill-opacity="0.65" stroke="#F5C842" stroke-width="0.5" stroke-opacity="0.4"/>
<circle cx="1015.9" cy="234.1" r="3.5" fill="#F5C842" fill-opacity="0.65" stroke="#F5C842" stroke-width="0.5" stroke-opacity="0.4"/>
<circle cx="1042.9" cy="323.5" r="3.5" fill="#F5C842" fill-opacity="0.65" stroke="#F5C842" stroke-width="0.5" stroke-opacity="0.4"/>
<circle cx="1083.6" cy="327.7" r="3.5" fill="#F5C842" fill-opacity="0.65" stroke="#F5C842" stroke-width="0.5" stroke-opacity="0.4"/>
<circle cx="969.9" cy="196.2" r="3.5" fill="#F5C842" fill-opacity="0.65" stroke="#F5C842" stroke-width="0.5" stroke-opacity="0.4"/>
<circle cx="836.1" cy="291.3" r="3.5" fill="#F5C842" fill-opacity="0.65" stroke="#F5C842" stroke-width="0.5" stroke-opacity="0.4"/>
<circle cx="954.8" cy="309.1" r="3.5" fill="#F5C842" fill-opacity="0.65" stroke="#F5C842" stroke-width="0.5" stroke-opacity="0.4"/>
<circle cx="794.7" cy="361.9" r="3.5" fill="#F5C842" fill-opacity="0.65" stroke="#F5C842" stroke-width="0.5" stroke-opacity="0.4"/>
<circle cx="779.4" cy="272.7" r="3.5" fill="#F5C842" fill-opacity="0.65" stroke="#F5C842" stroke-width="0.5" stroke-opacity="0.4"/>
<circle cx="754.0" cy="328.7" r="3.5" fill="#F5C842" fill-opacity="0.65" stroke="#F5C842" stroke-width="0.5" stroke-opacity="0.4"/>
<circle cx="1140.5" cy="292.3" r="3.5" fill="#F5C842" fill-opacity="0.65" stroke="#F5C842" stroke-width="0.5" stroke-opacity="0.4"/>
<circle cx="1059.8" cy="225.6" r="3.5" fill="#F5C842" fill-opacity="0.65" stroke="#F5C842" stroke-width="0.5" stroke-opacity="0.4"/>
<circle cx="984.6" cy="254.6" r="3.5" fill="#F5C842" fill-opacity="0.65" stroke="#F5C842" stroke-width="0.5" stroke-opacity="0.4"/>
<circle cx="1047.6" cy="208.3" r="3.5" fill="#F5C842" fill-opacity="0.65" stroke="#F5C842" stroke-width="0.5" stroke-opacity="0.4"/>
<circle cx="881.0" cy="237.3" r="3.5" fill="#F5C842" fill-opacity="0.65" stroke="#F5C842" stroke-width="0.5" stroke-opacity="0.4"/>
<circle cx="886.0" cy="269.9" r="3.5" fill="#F5C842" fill-opacity="0.65" stroke="#F5C842" stroke-width="0.5" stroke-opacity="0.4"/>
<circle cx="812.0" cy="292.9" r="3.5" fill="#F5C842" fill-opacity="0.65" stroke="#F5C842" stroke-width="0.5" stroke-opacity="0.4"/>
<circle cx="899.0" cy="380.2" r="3.5" fill="#F5C842" fill-opacity="0.65" stroke="#F5C842" stroke-width="0.5" stroke-opacity="0.4"/>
<circle cx="949.1" cy="358.4" r="3.5" fill="#F5C842" fill-opacity="0.65" stroke="#F5C842" stroke-width="0.5" stroke-opacity="0.4"/>
<circle cx="1002.7" cy="393.2" r="3.5" fill="#F5C842" fill-opacity="0.65" stroke="#F5C842" stroke-width="0.5" stroke-opacity="0.4"/>
<circle cx="992.2" cy="296.2" r="3.5" fill="#F5C842" fill-opacity="0.65" stroke="#F5C842" stroke-width="0.5" stroke-opacity="0.4"/>
<circle cx="806.7" cy="263.7" r="3.5" fill="#F5C842" fill-opacity="0.65" stroke="#F5C842" stroke-width="0.5" stroke-opacity="0.4"/>
<circle cx="952.3" cy="349.4" r="3.5" fill="#F5C842" fill-opacity="0.65" stroke="#F5C842" stroke-width="0.5" stroke-opacity="0.4"/>
<circle cx="963.4" cy="410.8" r="3.5" fill="#F5C842" fill-opacity="0.65" stroke="#F5C842" stroke-width="0.5" stroke-opacity="0.4"/>
<circle cx="818.0" cy="264.6" r="3.5" fill="#F5C842" fill-opacity="0.65" stroke="#F5C842" stroke-width="0.5" stroke-opacity="0.4"/>
<circle cx="1007.6" cy="177.3" r="3.5" fill="#F5C842" fill-opacity="0.65" stroke="#F5C842" stroke-width="0.5" stroke-opacity="0.4"/>
<circle cx="1133.5" cy="354.4" r="3.5" fill="#F5C842" fill-opacity="0.65" stroke="#F5C842" stroke-width="0.5" stroke-opacity="0.4"/>
<circle cx="1007.8" cy="346.3" r="3.5" fill="#F5C842" fill-opacity="0.65" stroke="#F5C842" stroke-width="0.5" stroke-opacity="0.4"/>
<circle cx="915.2" cy="383.0" r="3.5" fill="#F5C842" fill-opacity="0.65" stroke="#F5C842" stroke-width="0.5" stroke-opacity="0.4"/>
<circle cx="962.2" cy="338.2" r="3.5" fill="#F5C842" fill-opacity="0.65" stroke="#F5C842" stroke-width="0.5" stroke-opacity="0.4"/>
<circle cx="923.7" cy="351.5" r="3.5" fill="#F5C842" fill-opacity="0.65" stroke="#F5C842" stroke-width="0.5" stroke-opacity="0.4"/>
<circle cx="833.0" cy="362.5" r="3.5" fill="#F5C842" fill-opacity="0.65" stroke="#F5C842" stroke-width="0.5" stroke-opacity="0.4"/>
<circle cx="757.3" cy="256.8" r="3.5" fill="#F5C842" fill-opacity="0.65" stroke="#F5C842" stroke-width="0.5" stroke-opacity="0.4"/>
<circle cx="943.3" cy="375.3" r="3.5" fill="#F5C842" fill-opacity="0.65" stroke="#F5C842" stroke-width="0.5" stroke-opacity="0.4"/>
<circle cx="996.5" cy="407.8" r="3.5" fill="#F5C842" fill-opacity="0.65" stroke="#F5C842" stroke-width="0.5" stroke-opacity="0.4"/>
<circle cx="971.0" cy="396.7" r="3.5" fill="#F5C842" fill-opacity="0.65" stroke="#F5C842" stroke-width="0.5" stroke-opacity="0.4"/>
<circle cx="1031.7" cy="341.6" r="3.5" fill="#F5C842" fill-opacity="0.65" stroke="#F5C842" stroke-width="0.5" stroke-opacity="0.4"/>
<circle cx="1128.4" cy="305.4" r="3.5" fill="#F5C842" fill-opacity="0.65" stroke="#F5C842" stroke-width="0.5" stroke-opacity="0.4"/>

<text x="885" y="590" class="jp" font-size="11"
      fill="rgba(255,255,255,0.18)" text-anchor="middle">福島県のポケふた設置マップ（43箇所）</text>
<!-- FOOTER -->
<rect x="0" y="601" width="1200" height="29" fill="rgba(0,0,0,0.32)"/>
<line x1="0" y1="601" x2="1200" y2="601" stroke="#F5C842" stroke-width="1" stroke-opacity="0.15"/>
<circle cx="68" cy="615" r="7" fill="#F5C842" opacity="0.55"/>
<circle cx="68" cy="615" r="3.5" fill="#0C1B33"/>
<text x="83" y="620" class="jp" font-size="15" font-weight="700" fill="rgba(255,255,255,0.72)">ポケふたマップ</text>
<text x="228" y="620" class="jp" font-size="11" fill="rgba(255,255,255,0.28)">全国ポケモンマンホール情報サイト</text>
<text x="1142" y="620" class="en" font-size="13" font-weight="600" fill="rgba(255,255,255,0.35)" text-anchor="end">data.pokefuta.com</text>
</svg>