<svg width="1200" height="630" viewBox="0 0 1200 630" xmlns="http://www.w3.org/2000/svg">
  <defs>
    <linearGradient id="paper" x1="0" y1="0" x2="0" y2="1">
      <stop offset="0" stop-color="#FBF6EA"/>
      <stop offset="1" stop-color="#F4ECDA"/>
    </linearGradient>
    <linearGradient id="sky" x1="0" y1="0" x2="0" y2="1">
      <stop offset="0" stop-color="#DCEFF7"/>
      <stop offset="1" stop-color="#EAF6FB"/>
    </linearGradient>
    <linearGradient id="brand" x1="0" y1="0" x2="1" y2="0">
      <stop offset="0" stop-color="#6F55A3"/>
      <stop offset="1" stop-color="#5B4A8F"/>
    </linearGradient>
    <filter id="soft" x="-20%" y="-20%" width="140%" height="140%">
      <feDropShadow dx="0" dy="6" stdDeviation="8" flood-color="#3A2C1F" flood-opacity="0.16"/>
    </filter>
    <clipPath id="photoClip">
      <circle cx="925" cy="312" r="155"/>
    </clipPath>
    <style>
      .ttl{font-family:'Noto Sans CJK JP','Hiragino Sans',sans-serif;font-weight:700}
      .reg{font-family:'Noto Sans CJK JP','Hiragino Sans',sans-serif;font-weight:400}
    </style>
  </defs>

  <!-- Paper base -->
  <rect width="1200" height="630" fill="url(#paper)"/>

  <!-- Right panel: sky background -->
  <rect x="690" y="92" width="470" height="446" rx="28" fill="url(#sky)"/>
  <!-- Subtle map grid -->
  <g stroke="#9DBFD0" stroke-width="1" opacity="0.18">
    <line x1="690" y1="190" x2="1160" y2="190"/><line x1="690" y1="300" x2="1160" y2="300"/>
    <line x1="690" y1="410" x2="1160" y2="410"/><line x1="820" y1="92" x2="820" y2="538"/>
    <line x1="950" y1="92" x2="950" y2="538"/><line x1="1080" y1="92" x2="1080" y2="538"/>
  </g>

  <!-- Photo shadow -->
  <circle cx="925" cy="320" r="155" fill="#3A2C1F" opacity="0.18"/>
  <!-- Photo fallback background -->
  <circle cx="925" cy="312" r="155" fill="#D4C8B0"/>
  <!-- Photo image (populated by generate_social_ogp.py) -->
  
  <!-- Photo border ring -->
  <circle cx="925" cy="312" r="158" fill="none" stroke="#FFFFFF" stroke-width="5" opacity="0.9" filter="url(#soft)"/>

  <!-- "NEW" badge -->
  <circle cx="1055" cy="175" r="38" fill="#E8954B" filter="url(#soft)"/>
  <text x="1055" y="169" class="ttl" font-size="13" fill="#FFFFFF" text-anchor="middle">NEW</text>
  <text x="1055" y="184" class="reg" font-size="11" fill="#FFFFFF" text-anchor="middle">写真</text>

  <!-- Map pins -->
  <g transform="translate(742,480)"><path d="M0 0 C-10 -14 -10 -26 0 -26 C10 -26 10 -14 0 0 Z" fill="#6F55A3"/><circle cx="0" cy="-17" r="5" fill="#FFF9ED"/></g>
  <g transform="translate(1100,480)"><path d="M0 0 C-10 -14 -10 -26 0 -26 C10 -26 10 -14 0 0 Z" fill="#5FA4C9"/><circle cx="0" cy="-17" r="5" fill="#FFF9ED"/></g>

  <!-- Header band -->
  <g>
    <rect x="40" y="26" width="600" height="50" rx="16" fill="#FFFFFF" filter="url(#soft)"/>
    <path d="M58 40 l5 11 11 1 -8 8 2 12 -10 -6 -10 6 2 -12 -8 -8 11 -1 z" fill="#6F55A3" opacity="0.8"/>
    <text x="86" y="58" class="ttl" font-size="24" fill="#5B4A8F">全国のポケふた・ポケモンマンホール</text>
  </g>

  <!-- Tag -->
  <rect x="40" y="96" width="155" height="30" rx="15" fill="#E8954B" opacity="0.15"/>
  <text x="117" y="116" class="reg" font-size="14" fill="#C47020" text-anchor="middle">最新写真投稿</text>

  <!-- Prefecture -->
  <text x="44" y="195" class="ttl" font-size="58" fill="#3C342C">北海道</text>

  <!-- City -->
  <text x="44" y="260" class="ttl" font-size="46" fill="#6F55A3">網走</text>

  <!-- Divider line -->
  <line x1="44" y1="285" x2="600" y2="285" stroke="#E8D6B8" stroke-width="1.5"/>

  <!-- Pokemon label + value -->
  <text x="44" y="322" class="reg" font-size="16" fill="#9A7A3F">登場ポケモン</text>
  <text x="44" y="360" class="ttl" font-size="26" fill="#3C342C">アローラロコン × マニューラ</text>

  <!-- Date label + value -->
  <text x="44" y="410" class="reg" font-size="16" fill="#9A7A3F">写真投稿日</text>
  <text x="44" y="445" class="reg" font-size="22" fill="#5B4A8F">2026/06/02</text>

  <!-- Bottom brand band -->
  <rect x="0" y="556" width="1200" height="74" fill="url(#brand)"/>
  <circle cx="49" cy="587" r="9" fill="#FFFFFF" opacity="0.9"/>
  <circle cx="49" cy="587" r="5" fill="#6F55A3"/>
  <text x="66" y="587" class="ttl" font-size="22" fill="#FFFFFF">ポケふたマップ</text>
  <text x="66" y="610" class="reg" font-size="14" fill="#E8DEF5">旅の思い出に、ポケふた探しの冒険を！</text>
  <text x="600" y="600" class="ttl" font-size="18" fill="#FFFFFF" text-anchor="middle">全国470箇所以上掲載！</text>
  <text x="1160" y="600" class="ttl" font-size="20" fill="#FFFFFF" text-anchor="end">data.pokefuta.com</text>
</svg>
